<svg width="16" height="16" viewBox="0 0 16 16" fill="none" xmlns="http://www.w3.org/2000/svg">
<path fill-rule="evenodd" clip-rule="evenodd" d="M4.36364 0C3.962 0 3.63636 0.325636 3.63636 0.727273V3.63636H0.727273C0.325636 3.63636 0 3.962 0 4.36364C0 4.76527 0.325636 5.09091 0.727273 5.09091H3.63636V10.9091H0.727273C0.325636 10.9091 0 11.2348 0 11.6364C0 12.038 0.325636 12.3636 0.727273 12.3636H3.63636V15.2727C3.63636 15.6743 3.962 16 4.36364 16C4.76527 16 5.09091 15.6743 5.09091 15.2727V12.3636H10.9091V15.2727C10.9091 15.6743 11.2348 16 11.6364 16C12.038 16 12.3636 15.6743 12.3636 15.2727V12.3636H15.2727C15.6743 12.3636 16 12.038 16 11.6364C16 11.2348 15.6743 10.9091 15.2727 10.9091H12.3636V5.09091H15.2727C15.6743 5.09091 16 4.76527 16 4.36364C16 3.962 15.6743 3.63636 15.2727 3.63636H12.3636V0.727273C12.3636 0.325636 12.038 0 11.6364 0C11.2348 0 10.9091 0.325636 10.9091 0.727273V3.63636H5.09091V0.727273C5.09091 0.325636 4.76527 0 4.36364 0ZM5.09091 5.09091V10.9091H10.9091V5.09091H5.09091Z" fill="#333333"/>
</svg>
