<svg width="16" height="16" viewBox="0 0 16 16" fill="none" xmlns="http://www.w3.org/2000/svg">
<path d="M0.816934 15.1831L0.0209365 14.9994C-0.0423992 15.2739 0.0401178 15.5616 0.239283 15.7607C0.438456 15.9599 0.726174 16.0424 1.00063 15.9791L0.816934 15.1831ZM5.83808 11.3171C6.15711 10.9981 6.15711 10.4808 5.83808 10.1618C5.51904 9.84282 5.0018 9.84282 4.68278 10.1618L5.83808 11.3171ZM6.53537 9.87313C6.53537 10.0987 6.35249 10.2816 6.12691 10.2816V11.9154C7.25482 11.9154 8.1692 11.001 8.1692 9.87313H6.53537ZM6.12691 10.2816C5.90132 10.2816 5.71845 10.0987 5.71845 9.87313H4.08461C4.08461 11.001 4.99898 11.9154 6.12691 11.9154V10.2816ZM5.71845 9.87313C5.71845 9.64749 5.90132 9.46467 6.12691 9.46467V7.83083C4.99898 7.83083 4.08461 8.74521 4.08461 9.87313H5.71845ZM6.12691 9.46467C6.35249 9.46467 6.53537 9.64749 6.53537 9.87313H8.1692C8.1692 8.74521 7.25482 7.83083 6.12691 7.83083V9.46467ZM9.93497 0.825123L8.40848 2.35164L9.56376 3.50694L11.0903 1.98043L9.93497 0.825123ZM8.76171 2.14381L4.52564 3.35411L4.97449 4.92508L9.21053 3.71478L8.76171 2.14381ZM2.12503 5.88164L0.0209365 14.9994L1.61293 15.3667L3.71703 6.24903L2.12503 5.88164ZM1.00063 15.9791L10.1184 13.875L9.751 12.283L0.633242 14.3871L1.00063 15.9791ZM12.6459 11.4744L13.8562 7.23832L12.2852 6.78942L11.0749 11.0256L12.6459 11.4744ZM13.6484 7.59155L15.1749 6.06502L14.0196 4.90972L12.4931 6.43627L13.6484 7.59155ZM15.1749 3.06124L12.9388 0.825123L11.7835 1.98043L14.0196 4.21654L15.1749 3.06124ZM15.1749 6.06502C15.3271 5.91279 15.4765 5.76433 15.5916 5.62879C15.7128 5.48595 15.8432 5.30469 15.92 5.06801L14.3662 4.56313C14.3824 4.51298 14.4016 4.50586 14.346 4.57141C14.2842 4.64426 14.1909 4.73843 14.0196 4.90972L15.1749 6.06502ZM14.0196 4.21654C14.1909 4.38783 14.2842 4.482 14.346 4.55485C14.4016 4.6204 14.3824 4.61328 14.3662 4.56313L15.92 4.05825C15.8432 3.82157 15.7128 3.64031 15.5916 3.49747C15.4765 3.36193 15.3271 3.21347 15.1749 3.06124L14.0196 4.21654ZM15.92 5.06801C16.0267 4.73987 16.0267 4.38639 15.92 4.05825L14.3662 4.56313L15.92 5.06801ZM10.1184 13.875C10.6102 13.7615 11.0399 13.6724 11.4043 13.4507L10.5552 12.055C10.4694 12.1071 10.3526 12.1442 9.751 12.283L10.1184 13.875ZM11.0749 11.0256C10.9053 11.6191 10.8623 11.7339 10.8057 11.8169L12.1561 12.7368C12.3962 12.3843 12.5073 11.9596 12.6459 11.4744L11.0749 11.0256ZM11.4043 13.4507C11.7029 13.2691 11.9593 13.0256 12.1561 12.7368L10.8057 11.8169C10.7401 11.9132 10.6548 11.9943 10.5552 12.055L11.4043 13.4507ZM4.52564 3.35411C4.04037 3.49275 3.6157 3.60385 3.26325 3.84395L4.1831 5.19425C4.26607 5.13773 4.38085 5.09469 4.97449 4.92508L4.52564 3.35411ZM3.71703 6.24903C3.85585 5.64744 3.89292 5.53061 3.9451 5.44484L2.54923 4.59572C2.3276 4.96006 2.23851 5.38989 2.12503 5.88164L3.71703 6.24903ZM3.26325 3.84395C2.97435 4.04075 2.7309 4.29708 2.54923 4.59572L3.9451 5.44484C4.00565 5.34529 4.0868 5.25985 4.1831 5.19425L3.26325 3.84395ZM11.0903 1.98043C11.2616 1.80914 11.3558 1.71586 11.4286 1.65402C11.4941 1.59836 11.487 1.61754 11.4369 1.63383L10.932 0.079962C10.6953 0.156867 10.5141 0.287223 10.3712 0.408478C10.2357 0.523541 10.0872 0.672906 9.93497 0.825123L11.0903 1.98043ZM12.9388 0.825123C12.7865 0.672898 12.6381 0.523541 12.5025 0.408478C12.3597 0.287223 12.1785 0.156867 11.9417 0.079962L11.4369 1.63383C11.3867 1.61754 11.3796 1.59837 11.4451 1.65402C11.518 1.71586 11.6122 1.80913 11.7835 1.98043L12.9388 0.825123ZM11.4369 1.63383L11.9417 0.079962C11.6136 -0.026654 11.2602 -0.026654 10.932 0.079962L11.4369 1.63383ZM8.40848 3.50694L12.4931 7.59155L13.6484 6.43627L9.56376 2.35164L8.40848 3.50694ZM4.68278 10.1618L0.239283 14.6055L1.39459 15.7607L5.83808 11.3171L4.68278 10.1618Z" fill="#333333"/>
</svg>
