<svg width="20" height="20" viewBox="0 0 20 20" fill="none" xmlns="http://www.w3.org/2000/svg">
<path d="M8.09524 0H0.47619C0.349897 0 0.228776 0.05017 0.139473 0.139473C0.05017 0.228776 0 0.349897 0 0.47619V8.09524C0 8.22153 0.05017 8.34265 0.139473 8.43196C0.228776 8.52126 0.349897 8.57143 0.47619 8.57143H8.09524C8.22153 8.57143 8.34265 8.52126 8.43196 8.43196C8.52126 8.34265 8.57143 8.22153 8.57143 8.09524V0.47619C8.57143 0.349897 8.52126 0.228776 8.43196 0.139473C8.34265 0.05017 8.22153 0 8.09524 0ZM7.61905 7.61905H0.952381V0.952381H7.61905V7.61905ZM19.5238 0H11.9048C11.7785 0 11.6573 0.05017 11.568 0.139473C11.4787 0.228776 11.4286 0.349897 11.4286 0.47619V8.09524C11.4286 8.22153 11.4787 8.34265 11.568 8.43196C11.6573 8.52126 11.7785 8.57143 11.9048 8.57143H19.5238C19.6501 8.57143 19.7712 8.52126 19.8605 8.43196C19.9498 8.34265 20 8.22153 20 8.09524V0.47619C20 0.349897 19.9498 0.228776 19.8605 0.139473C19.7712 0.05017 19.6501 0 19.5238 0ZM19.0476 7.61905H12.381V0.952381H19.0476V7.61905ZM8.09524 11.4286H0.47619C0.349897 11.4286 0.228776 11.4787 0.139473 11.568C0.05017 11.6573 0 11.7785 0 11.9048V19.5238C6.31411e-06 19.6501 0.0501782 19.7712 0.13948 19.8605C0.228782 19.9498 0.349899 20 0.47619 20H8.09524C8.22153 20 8.34265 19.9498 8.43195 19.8605C8.52125 19.7712 8.57142 19.6501 8.57143 19.5238V11.9048C8.57143 11.7785 8.52126 11.6573 8.43196 11.568C8.34265 11.4787 8.22153 11.4286 8.09524 11.4286ZM7.61905 19.0476H0.952381V12.381H7.61905V19.0476ZM19.5238 11.4286H11.9048C11.7785 11.4286 11.6573 11.4787 11.568 11.568C11.4787 11.6573 11.4286 11.7785 11.4286 11.9048V19.5238C11.4286 19.6501 11.4787 19.7712 11.5681 19.8605C11.6574 19.9498 11.7785 20 11.9048 20H19.5238C19.6501 20 19.7712 19.9498 19.8605 19.8605C19.9498 19.7712 20 19.6501 20 19.5238V11.9048C20 11.7785 19.9498 11.6573 19.8605 11.568C19.7712 11.4787 19.6501 11.4286 19.5238 11.4286ZM19.0476 19.0476H12.381V12.381H19.0476V19.0476Z" fill="black"/>
</svg>
