<svg width="16" height="16" viewBox="0 0 16 16" fill="none" xmlns="http://www.w3.org/2000/svg">
<path d="M14.244 11.7584C13.7434 11.2574 13.1584 10.8485 12.516 10.5504C13.422 9.81641 14 8.69641 14 7.44042C14 5.22444 12.152 3.40645 9.93599 3.44045C7.754 3.47445 5.99601 5.25244 5.99601 7.44042C5.99601 8.69641 6.57601 9.81641 7.48 10.5504C6.83742 10.8483 6.25245 11.2572 5.75201 11.7584C4.66002 12.8524 4.04002 14.2964 4.00002 15.8364C3.99949 15.8577 4.00324 15.879 4.01104 15.8988C4.01884 15.9187 4.03054 15.9368 4.04545 15.9521C4.06036 15.9674 4.07818 15.9795 4.09786 15.9878C4.11753 15.9961 4.13867 16.0004 4.16002 16.0004H5.28002C5.36602 16.0004 5.43802 15.9324 5.44002 15.8464C5.47802 14.6864 5.94801 13.6004 6.77401 12.7764C7.19668 12.3515 7.69944 12.0146 8.25318 11.7853C8.80692 11.5559 9.40064 11.4387 9.99999 11.4404C11.218 11.4404 12.364 11.9144 13.226 12.7764C14.05 13.6004 14.52 14.6864 14.56 15.8464C14.562 15.9324 14.634 16.0004 14.72 16.0004H15.84C15.8613 16.0004 15.8824 15.9961 15.9021 15.9878C15.9218 15.9795 15.9396 15.9674 15.9545 15.9521C15.9694 15.9368 15.9811 15.9187 15.9889 15.8988C15.9967 15.879 16.0005 15.8577 15.9999 15.8364C15.96 14.2964 15.34 12.8524 14.244 11.7584ZM9.99999 10.0004C9.31599 10.0004 8.672 9.73441 8.19 9.25041C7.94811 9.01042 7.75703 8.72417 7.62818 8.40873C7.49932 8.0933 7.43532 7.75513 7.44 7.41442C7.446 6.75843 7.708 6.12443 8.166 5.65443C8.646 5.16244 9.28799 4.88844 9.97399 4.88044C10.652 4.87444 11.31 5.13844 11.794 5.61243C12.29 6.09843 12.562 6.74843 12.562 7.44042C12.562 8.12442 12.296 8.76641 11.812 9.25041C11.5745 9.489 11.2921 9.67813 10.9811 9.80687C10.6701 9.93561 10.3366 10.0014 9.99999 10.0004ZM4.99002 7.96842C4.97202 7.79442 4.96202 7.61842 4.96202 7.44042C4.96202 7.12242 4.99202 6.81243 5.04802 6.51043C5.06202 6.43843 5.02402 6.36443 4.95802 6.33443C4.68602 6.21243 4.43602 6.04443 4.22002 5.83243C3.9655 5.58565 3.76522 5.28852 3.63196 4.96C3.49869 4.63149 3.43537 4.2788 3.44603 3.92444C3.46403 3.28245 3.72203 2.67245 4.17202 2.21246C4.66602 1.70646 5.33002 1.43046 6.03601 1.43846C6.67401 1.44446 7.29 1.69046 7.756 2.12646C7.914 2.27446 8.05 2.43845 8.164 2.61445C8.204 2.67645 8.282 2.70245 8.35 2.67845C8.702 2.55645 9.07399 2.47045 9.45599 2.43045C9.56799 2.41845 9.63199 2.29845 9.58199 2.19846C8.93199 0.912463 7.604 0.0244691 6.06801 0.000469272C3.85003 -0.0335305 2.00204 1.78446 2.00204 3.99844C2.00204 5.25444 2.58003 6.37443 3.48603 7.10842C2.85003 7.40242 2.26404 7.80842 1.75604 8.31642C0.660046 9.41041 0.0400498 10.8544 5.00117e-05 12.3964C-0.000483795 12.4177 0.00326024 12.439 0.0110616 12.4588C0.018863 12.4787 0.0305638 12.4968 0.0454745 12.5121C0.0603853 12.5274 0.0782045 12.5396 0.0978819 12.5478C0.117559 12.5561 0.138697 12.5604 0.160049 12.5604H1.28204C1.36804 12.5604 1.44004 12.4924 1.44204 12.4064C1.48004 11.2464 1.95004 10.1604 2.77603 9.33641C3.36403 8.74841 4.08402 8.34042 4.87002 8.14242C4.94802 8.12242 5.00002 8.04842 4.99002 7.96842Z" fill="black"/>
</svg>
