<svg width="34" height="34" viewBox="0 0 34 34" fill="none" xmlns="http://www.w3.org/2000/svg">
<path d="M16.9999 17C19.4852 17 21.4999 14.9853 21.4999 12.5C21.4999 10.0147 19.4852 8 16.9999 8C14.5147 8 12.4999 10.0147 12.4999 12.5C12.4999 14.9853 14.5147 17 16.9999 17Z" stroke="#333333" stroke-width="3"/>
<path d="M17 32C25.2843 32 32 25.2843 32 17C32 8.71573 25.2843 2 17 2C8.71573 2 2 8.71573 2 17C2 25.2843 8.71573 32 17 32Z" stroke="#333333" stroke-width="3"/>
<path d="M25.9537 29C25.715 24.6628 24.3871 21.5 16.9999 21.5C9.61282 21.5 8.28487 24.6628 8.04614 29" stroke="#333333" stroke-width="3" stroke-linecap="round"/>
</svg>
